<svg xmlns="http://www.w3.org/2000/svg" viewBox="0 0 407 124"><path d="M83.83 66.66l.77.59c-7.04-8.22-24.07-12.33-38.35-12.33v2.35c13.77.2 29.29 3.02 37.57 9.38z" fill="#57585a"/><path d="M107.6,53.17h-14.54c7.44-3.09,12.68-10.42,12.68-18.98,0-11.35-9.2-20.54-20.54-20.54s-20.54,9.2-20.54,20.54c0,8.56,5.24,15.89,12.68,18.98h-14.54c-1.44,0-2.7.72-3.46,1.82,10.02,1.61,19.81,5.11,25.28,10.78,5.65-5.86,15.94-9.4,26.32-10.93-.77-1.01-1.97-1.67-3.33-1.67Z" fill="#2aace3"/><g fill="#57585a"><path d="M84.61 67.26c-7.33-6-25.05-9-39.91-9v49.3c14.87 0 32.58 1.83 39.91 5.48 7.33-3.65 25.05-5.48 39.91-5.48v-49.3c-14.87 0-32.58 3-39.91 9zm-5.28 40.79c-8.52-2.18-20.78-3.29-31.63-3.46V61.3c12.8.32 24.77 2.7 31.63 6.16v40.59zm42.19-3.46c-10.85.17-23.11 1.28-31.63 3.46V67.46c6.86-3.47 18.83-5.84 31.63-6.16v43.29z"/><path d="M85.39 66.66l-.77.59c7.04-8.22 24.07-12.33 38.35-12.33v2.35c-13.77.2-29.29 3.02-37.57 9.38z"/></g><path d="M51.35 72.93h9.78v8.02h-9.78zm0 13.7c11.54-.39 17.02-.2 24.65.59m-24.65 3.91c11.54-.39 17.02-.2 24.65.59m-24.65 3.91c11.54-.39 17.02-.2 24.65.59m-24.65 3.91c11.54-.39 17.02-.2 24.65.59m41.87 1.76s-13.89.39-24.26 2.15V94.26l24.26-.78v9z" fill="none" stroke="#57585a" stroke-miterlimit="10"/><path d="M113.04 77.28c.24-.03.42-.11.56-.25s.2-.31.2-.54a.73.73 0 0 0-.18-.52c-.12-.13-.29-.21-.52-.24-.14-.02-.53-.02-1.19-.02h-.8v1.59h.91l1.01-.02zm.43 1.27c-.19-.07-.6-.1-1.23-.1h-1.12v1.84h1.29l.95-.04c.21-.04.37-.13.5-.27s.19-.34.19-.58c0-.21-.05-.38-.15-.53a.82.82 0 0 0-.43-.31zm-8.16-2.91c-.57 0-1.03.2-1.38.59s-.53.98-.53 1.78.18 1.37.54 1.77.82.6 1.37.6 1.01-.2 1.36-.6.53-1 .53-1.79-.17-1.38-.52-1.76-.8-.58-1.38-.58zm-11.9-3.68v17.61h25.04V66.48c-10.17-.39-20.15.59-25.04 5.48zm7.37 6.96c0 .57-.05 1.01-.15 1.31-.13.4-.38.72-.73.96s-.82.36-1.4.36c-.68 0-1.2-.19-1.57-.57s-.55-.94-.55-1.67l1.31-.15c.02.39.07.67.17.83.15.25.38.37.69.37s.53-.09.66-.27.19-.54.19-1.1v-4.44h1.38v4.35zm6.96 1.71c-.6.63-1.41.94-2.42.94s-1.84-.31-2.44-.94c-.6-.62-.91-1.48-.91-2.58 0-.7.1-1.29.31-1.76a3.33 3.33 0 0 1 .64-.94 2.76 2.76 0 0 1 .89-.62c.43-.18.92-.27 1.48-.27 1.01 0 1.82.31 2.43.94s.91 1.5.91 2.62-.3 1.98-.91 2.61zm7.54-.26c-.15.29-.34.53-.6.71-.25.18-.56.29-.93.33-.23.03-.79.04-1.67.05h-2.34v-6.88h2.75c.54 0 .95.02 1.22.07s.51.14.72.28.39.34.53.58.21.51.21.8a1.65 1.65 0 0 1-.26.89c-.17.27-.41.47-.71.6.42.12.74.33.97.62s.34.64.34 1.04a1.97 1.97 0 0 1-.22.91z" fill="#57585a"/><g fill="#2aace3"><ellipse cx="43.82" cy="76.95" rx="5.77" ry="7.73"/><ellipse cx="125.4" cy="76.95" rx="5.77" ry="7.73"/><path d="M188.53 47.08h8.72v24.43c0 11.01-5.28 14.85-13.76 14.85-2.01 0-4.64-.34-6.36-.92l.97-7.05c1.2.4 2.75.69 4.47.69 3.67 0 5.96-1.66 5.96-7.68V47.09zM251.44 66c0 12.67-7.68 20.36-18.98 20.36s-18.18-8.66-18.18-19.67c0-11.58 7.4-20.24 18.81-20.24s18.35 8.89 18.35 19.55zm-27.92.52c0 7.57 3.56 12.9 9.4 12.9s9.29-5.62 9.29-13.13c0-6.94-3.33-12.9-9.35-12.9s-9.35 5.62-9.35 13.13zm45.19-18.92c2.29-.46 6.94-.8 11.3-.8 5.33 0 8.6.52 11.41 2.18 2.7 1.43 4.64 4.07 4.64 7.57s-2.01 6.65-6.37 8.26v.11c4.42 1.2 7.68 4.53 7.68 9.52 0 3.5-1.61 6.25-4.01 8.2-2.81 2.24-7.51 3.5-15.2 3.5-4.3 0-7.51-.29-9.46-.57V47.61zm8.66 14.79h2.87c4.59 0 7.05-1.89 7.05-4.76s-2.24-4.47-6.19-4.47c-1.89 0-2.98.11-3.73.23v9zm0 17.15c.86.12 1.89.12 3.38.12 3.96 0 7.46-1.55 7.46-5.56s-3.5-5.45-7.86-5.45h-2.98v10.89zm37.79-2.81c2.35 1.2 5.96 2.41 9.69 2.41 4.01 0 6.13-1.66 6.13-4.19s-1.83-3.79-6.48-5.45c-6.42-2.24-10.61-5.79-10.61-11.41 0-6.59 5.5-11.64 14.62-11.64 4.36 0 7.57.92 9.86 1.95l-1.95 7.05c-1.55-.75-4.3-1.83-8.09-1.83s-5.62 1.72-5.62 3.73c0 2.47 2.18 3.56 7.17 5.45 6.82 2.52 10.04 6.08 10.04 11.53 0 6.48-4.99 12.04-15.6 12.04-4.42 0-8.77-1.2-10.95-2.41l1.78-7.23z"/></g><path fill="none" stroke="#2aace3" stroke-miterlimit="10" stroke-width="2" d="M171.09 95.83h172.56"/></svg>